<?xml version="1.0" encoding="utf-8"?>
<!-- Generator: Adobe Illustrator 16.0.0, SVG Export Plug-In . SVG Version: 6.00 Build 0)  -->
<!DOCTYPE svg PUBLIC "-//W3C//DTD SVG 1.1//EN" "http://www.w3.org/Graphics/SVG/1.1/DTD/svg11.dtd">
<svg version="1.1" id="Layer_1" xmlns="http://www.w3.org/2000/svg" xmlns:xlink="http://www.w3.org/1999/xlink" x="0px" y="0px"
	 width="3000px" height="2060px" viewBox="0 0 3000 2060" enable-background="new 0 0 3000 2060" xml:space="preserve">
<rect x="-140" y="-142" width="3203" height="2465"/>
<g>
	<g>
		<linearGradient id="SVGID_1_" gradientUnits="userSpaceOnUse" x1="1504.5967" y1="645.9854" x2="1504.5967" y2="1049.022">
			<stop  offset="0" style="stop-color:#E6BB2C"/>
			<stop  offset="0.2479" style="stop-color:#D2B65B"/>
			<stop  offset="0.5453" style="stop-color:#F0E093"/>
			<stop  offset="0.8055" style="stop-color:#DCB842"/>
			<stop  offset="1" style="stop-color:#B68027"/>
		</linearGradient>
		<path fill="url(#SVGID_1_)" d="M1611.927,768.097c30.823-35.105,52.591-77.395,65.859-122.111
			c1.45,73.671-24.049,149.409-78.506,200.551c-81.758,77.404-196.264,113.06-267.933,202.485
			c12.646-35.036,31.857-67.725,57.22-95.093C1454.916,882.474,1548.143,842.389,1611.927,768.097z"/>
		<linearGradient id="SVGID_2_" gradientUnits="userSpaceOnUse" x1="1625.2998" y1="941.1426" x2="1625.2998" y2="1175.7925">
			<stop  offset="0" style="stop-color:#E6BB2C"/>
			<stop  offset="0.2479" style="stop-color:#D2B65B"/>
			<stop  offset="0.5453" style="stop-color:#F0E093"/>
			<stop  offset="0.8055" style="stop-color:#DCB842"/>
			<stop  offset="1" style="stop-color:#B68027"/>
		</linearGradient>
		<path fill="url(#SVGID_2_)" d="M1435.98,970.586c15.064-10.02,30.335-19.767,45.678-29.443
			c28.476,90.949,88.802,180.375,182.447,212.442c48.511,17.963,100.413,14.166,150.514,7.737
			c-93.779,28.818-203.866,15.41-281.064-47.616C1486.637,1077.563,1456.642,1025.179,1435.98,970.586z"/>
		<linearGradient id="SVGID_3_" gradientUnits="userSpaceOnUse" x1="1323.7778" y1="623.5957" x2="1323.7778" y2="1096.1089">
			<stop  offset="0" style="stop-color:#E6BB2C"/>
			<stop  offset="0.2479" style="stop-color:#D2B65B"/>
			<stop  offset="0.5453" style="stop-color:#F0E093"/>
			<stop  offset="0.8055" style="stop-color:#DCB842"/>
			<stop  offset="1" style="stop-color:#B68027"/>
		</linearGradient>
		<path fill="url(#SVGID_3_)" d="M1380.763,623.596c-11.346,29.243-42.305,144.028-49.982,170.635
			c-28.954,86.732-50.167,176.432-86.793,260.467c-9.194,25.153-33.453,37.457-58.606,40.706
			c40.842,1.446,81.824,0.137,122.733,0.622c-17.412-2.006-42.845-4.22-45.538-26.191c-4.702-42.435,13.611-82.861,25.08-122.806
			c20.94-64.549,67.328-212.166,67.145-221.224c0.707-0.45,18.662,42.102,22.644,57.775c11.889,43.951,25.223,87.487,39.256,130.817
			c14.854-12.234,29.992-24.116,45.475-35.519C1435.08,793.809,1408.822,708.387,1380.763,623.596z"/>
	</g>
	<g>
		<g>
			<path fill="#FFFFFF" d="M1020.63,1306.207h-44.29l-10.421,26.053h-13.417l38.949-95.354h14.459l38.949,95.354h-13.678
				L1020.63,1306.207z M980.639,1295.525h35.692l-17.846-44.681L980.639,1295.525z"/>
			<path fill="#FFFFFF" d="M1075.08,1236.906l31.654,49.37l31.263-49.37h14.069v95.354h-12.245v-77.377l-31.654,50.021h-3.777
				l-31.524-50.021v77.377h-12.115v-95.354H1075.08z"/>
			<path fill="#FFFFFF" d="M1195.053,1236.906l31.654,49.37l31.263-49.37h14.069v95.354h-12.245v-77.377l-31.654,50.021h-3.777
				l-31.524-50.021v77.377h-12.115v-95.354H1195.053z"/>
			<path fill="#FFFFFF" d="M1356.06,1306.207h-44.29l-10.421,26.053h-13.417l38.949-95.354h14.459l38.949,95.354h-13.678
				L1356.06,1306.207z M1316.069,1295.525h35.692l-17.846-44.681L1316.069,1295.525z"/>
			<path fill="#FFFFFF" d="M1408.425,1332.26h-12.245v-95.354c8.728-0.521,19.67-0.912,29.57-0.912
				c22.535,0,36.995,11.073,36.995,28.268c0,13.678-7.426,23.057-20.973,27.616l29.31,40.382h-14.59l-26.443-36.865h-21.624V1332.26
				z M1408.425,1284.453h17.194c14.329,0,24.229-7.556,24.229-18.628c0-11.464-9.77-18.237-26.053-18.237
				c-5.862,0-10.813,0.261-15.371,0.651V1284.453z"/>
			<path fill="#FFFFFF" d="M1532.047,1236.906v41.555h18.105l27.877-41.555h13.809l-31.004,45.854l32.566,49.5h-14.328
				l-28.008-42.727h-19.018v42.727h-12.246v-95.354H1532.047z"/>
			<path fill="#FFFFFF" d="M1623.621,1236.906v40.121h49.762v-40.121h12.244v95.354h-12.244v-43.639h-49.762v43.639h-12.244v-95.354
				H1623.621z"/>
			<path fill="#FFFFFF" d="M1769.648,1306.207h-44.291l-10.42,26.053h-13.418l38.949-95.354h14.459l38.949,95.354h-13.678
				L1769.648,1306.207z M1729.656,1295.525h35.693l-17.846-44.681L1729.656,1295.525z"/>
			<path fill="#FFFFFF" d="M1870.992,1236.906v6.514l-50.281,77.377h50.152v11.463h-67.348v-6.773l50.543-77.377h-47.156v-11.203
				H1870.992z"/>
			<path fill="#FFFFFF" d="M1948.367,1306.207h-44.289l-10.422,26.053h-13.416l38.947-95.354h14.461l38.949,95.354h-13.678
				L1948.367,1306.207z M1908.377,1295.525h35.691l-17.846-44.681L1908.377,1295.525z"/>
			<path fill="#FFFFFF" d="M2000.732,1236.906v83.891h41.424v11.463h-53.668v-95.354H2000.732z"/>
		</g>
		<g>
			<path fill="#FFFFFF" d="M1216.781,1383.842c2.708,2.375,4.438,5.563,5.188,9.563c0.083,0.584-0.042,1.125-0.375,1.625
				c-0.292,0.417-0.709,0.688-1.25,0.813c-0.5,0.125-0.959,0.042-1.375-0.25c-0.5-0.333-0.813-0.875-0.938-1.625
				c-0.709-3.625-2.375-6.354-5-8.188c-2.375-1.666-5.375-2.5-9-2.5c-4.75,0-8.604,1.729-11.563,5.188
				c-3.084,3.709-4.625,8.834-4.625,15.375c0,6.709,1.541,11.875,4.625,15.5c2.875,3.375,6.729,5.063,11.563,5.063
				c3.666,0,6.646-0.854,8.938-2.563c2.583-1.958,4.333-5.063,5.25-9.313c0.125-0.666,0.438-1.146,0.938-1.438
				c0.458-0.25,0.958-0.313,1.5-0.188c0.583,0.125,1.021,0.417,1.313,0.875c0.333,0.5,0.416,1.125,0.25,1.875
				c-1,4.167-2.834,7.459-5.5,9.875c-3.167,2.917-7.396,4.375-12.688,4.375c-6,0-10.813-2.146-14.438-6.438
				c-3.75-4.333-5.625-10.208-5.625-17.625c0-7.25,1.875-13.083,5.625-17.5c3.666-4.375,8.479-6.563,14.438-6.563
				C1209.364,1379.779,1213.614,1381.134,1216.781,1383.842z"/>
			<path fill="#FFFFFF" d="M1266.469,1387.154c3.333,4.375,5,9.938,5,16.688s-1.667,12.292-5,16.625
				c-3.75,4.959-9.042,7.438-15.875,7.438c-6.875,0-12.188-2.479-15.938-7.438c-3.25-4.333-4.875-9.875-4.875-16.625
				s1.625-12.313,4.875-16.688c3.75-4.916,9.063-7.375,15.938-7.375C1257.427,1379.779,1262.719,1382.238,1266.469,1387.154z
				 M1237.594,1389.404c-2.625,3.625-3.938,8.438-3.938,14.438c0,5.959,1.313,10.771,3.938,14.438c2.958,4.125,7.291,6.188,13,6.188
				c5.666,0,10-2.063,13-6.188c2.666-3.708,4-8.521,4-14.438c0-5.958-1.334-10.771-4-14.438c-3-4.125-7.334-6.188-13-6.188
				C1244.885,1383.217,1240.552,1385.279,1237.594,1389.404z"/>
			<path fill="#FFFFFF" d="M1296.094,1380.842c6.833,0,12.188,2.292,16.063,6.875c3.625,4.209,5.438,9.584,5.438,16.125
				c0,6.542-1.813,11.917-5.438,16.125c-3.875,4.584-9.229,6.875-16.063,6.875h-8.938c-1.917,0-3.417-0.625-4.5-1.875
				c-0.959-1.125-1.438-2.5-1.438-4.125v-33.938c0-1.666,0.479-3.063,1.438-4.188c1.083-1.25,2.583-1.875,4.5-1.875H1296.094z
				 M1296.094,1423.342c5.583,0,9.958-1.938,13.125-5.813c2.958-3.541,4.438-8.104,4.438-13.688c0-5.625-1.479-10.208-4.438-13.75
				c-3.167-3.833-7.542-5.75-13.125-5.75h-8.25c-0.917,0-1.625,0.292-2.125,0.875c-0.417,0.5-0.625,1.146-0.625,1.938v33.438
				c0,0.75,0.208,1.375,0.625,1.875c0.5,0.584,1.208,0.875,2.125,0.875H1296.094z"/>
			<path fill="#FFFFFF" d="M1328.719,1380.279c0.375-0.333,0.833-0.5,1.375-0.5c0.5,0,0.938,0.167,1.313,0.5
				c0.416,0.375,0.625,0.896,0.625,1.563v44.063c0,0.625-0.209,1.125-0.625,1.5c-0.375,0.333-0.813,0.5-1.313,0.5
				c-0.542,0-1-0.167-1.375-0.5c-0.375-0.375-0.563-0.875-0.563-1.5v-44.063C1328.156,1381.176,1328.344,1380.654,1328.719,1380.279
				z"/>
			<path fill="#FFFFFF" d="M1346.531,1379.779c1.25-0.166,2.208,0.271,2.875,1.313l2.125,3.125l21.938,36.5v-39.25
				c0-0.541,0.188-0.979,0.563-1.313c0.375-0.25,0.833-0.375,1.375-0.375c0.541,0,1,0.146,1.375,0.438
				c0.416,0.292,0.625,0.709,0.625,1.25v43.75c0,1.417-0.563,2.271-1.688,2.563c-1.125,0.333-1.938,0.063-2.438-0.813l-3.5-5.125
				l-21.188-34.938v38.813c0,0.709-0.209,1.271-0.625,1.688c-0.375,0.375-0.834,0.563-1.375,0.563c-0.542-0.042-1-0.25-1.375-0.625
				c-0.375-0.417-0.563-0.958-0.563-1.625v-43.438C1344.656,1380.821,1345.281,1379.988,1346.531,1379.779z"/>
			<path fill="#FFFFFF" d="M1421.906,1383.779c2.708,2.167,4.479,5.042,5.313,8.625c0.125,0.667,0.021,1.229-0.313,1.688
				c-0.334,0.417-0.792,0.667-1.375,0.75c-0.542,0.084-1.042-0.021-1.5-0.313c-0.542-0.291-0.854-0.75-0.938-1.375
				c-0.667-3.25-2.292-5.729-4.875-7.438c-2.542-1.625-5.834-2.438-9.875-2.438c-5.25,0-9.375,1.729-12.375,5.188
				c-3.125,3.625-4.688,8.75-4.688,15.375c0,6.792,1.563,11.959,4.688,15.5c2.958,3.375,7.083,5.063,12.375,5.063
				c4.5,0,8.125-1.291,10.875-3.875c3.25-3.083,4.875-7.791,4.875-14.125h-13.938c-1.167,0-1.75-0.583-1.75-1.75
				c0-1.166,0.583-1.75,1.75-1.75h15c0.875,0,1.563,0.292,2.063,0.875c0.5,0.542,0.75,1.209,0.75,2v19.375
				c0,0.625-0.209,1.125-0.625,1.5c-0.375,0.333-0.813,0.5-1.313,0.5c-0.542,0-1-0.167-1.375-0.5
				c-0.375-0.375-0.563-0.875-0.563-1.5v-6c-1.375,2.834-3.375,4.979-6,6.438c-2.709,1.541-5.959,2.313-9.75,2.313
				c-6.459,0-11.563-2.146-15.313-6.438c-3.792-4.291-5.688-10.166-5.688-17.625c0-7.291,1.896-13.125,5.688-17.5
				c3.833-4.375,8.938-6.563,15.313-6.563C1414.01,1379.779,1418.531,1381.113,1421.906,1383.779z"/>
			<path fill="#FFFFFF" d="M1489.344,1375.717c0-1.041,0.646-1.563,1.938-1.563c1.333-0.041,2,0.459,2,1.5v56.188
				c0,0.541-0.209,0.979-0.625,1.313c-0.375,0.291-0.834,0.438-1.375,0.438c-0.542,0-1-0.167-1.375-0.5
				c-0.375-0.292-0.563-0.709-0.563-1.25v-2.375V1375.717z"/>
			<path fill="#FFFFFF" d="M1583.594,1380.842c0.625,0,1.125,0.167,1.5,0.5c0.333,0.334,0.5,0.75,0.5,1.25
				c0,0.459-0.167,0.854-0.5,1.188c-0.375,0.375-0.875,0.563-1.5,0.563h-21.063c-0.917,0-1.625,0.292-2.125,0.875
				c-0.417,0.5-0.625,1.146-0.625,1.938v14.25h21.438c0.625,0,1.125,0.167,1.5,0.5c0.333,0.334,0.5,0.729,0.5,1.188
				c0,0.459-0.167,0.854-0.5,1.188c-0.375,0.375-0.875,0.563-1.5,0.563h-21.438v21.063c0,0.625-0.209,1.125-0.625,1.5
				c-0.375,0.333-0.813,0.5-1.313,0.5c-0.542,0-1-0.167-1.375-0.5c-0.375-0.375-0.563-0.875-0.563-1.5v-39
				c0-1.666,0.479-3.063,1.438-4.188c1.083-1.25,2.583-1.875,4.5-1.875H1583.594z"/>
			<path fill="#FFFFFF" d="M1595.344,1380.279c0.375-0.333,0.833-0.5,1.375-0.5c0.5,0,0.938,0.167,1.313,0.5
				c0.416,0.375,0.625,0.896,0.625,1.563v44.063c0,0.625-0.209,1.125-0.625,1.5c-0.375,0.333-0.813,0.5-1.313,0.5
				c-0.542,0-1-0.167-1.375-0.5c-0.375-0.375-0.563-0.875-0.563-1.5v-44.063C1594.781,1381.176,1594.969,1380.654,1595.344,1380.279
				z"/>
			<path fill="#FFFFFF" d="M1613.156,1379.779c1.25-0.166,2.208,0.271,2.875,1.313l2.125,3.125l21.938,36.5v-39.25
				c0-0.541,0.188-0.979,0.563-1.313c0.375-0.25,0.833-0.375,1.375-0.375c0.541,0,1,0.146,1.375,0.438
				c0.416,0.292,0.625,0.709,0.625,1.25v43.75c0,1.417-0.563,2.271-1.688,2.563c-1.125,0.333-1.938,0.063-2.438-0.813l-3.5-5.125
				l-21.188-34.938v38.813c0,0.709-0.209,1.271-0.625,1.688c-0.375,0.375-0.834,0.563-1.375,0.563c-0.542-0.042-1-0.25-1.375-0.625
				c-0.375-0.417-0.563-0.958-0.563-1.625v-43.438C1611.281,1380.821,1611.906,1379.988,1613.156,1379.779z"/>
			<path fill="#FFFFFF" d="M1684.156,1381.342c0.375,0.334,0.563,0.75,0.563,1.25c0,0.459-0.188,0.854-0.563,1.188
				c-0.375,0.375-0.875,0.563-1.5,0.563h-12.688v41.625c0,0.584-0.209,1.063-0.625,1.438c-0.375,0.333-0.813,0.5-1.313,0.5
				c-0.542,0-1-0.167-1.375-0.5c-0.375-0.375-0.563-0.854-0.563-1.438v-41.625h-13.25c-1,0-1.5-0.583-1.5-1.75
				c0-1.166,0.5-1.75,1.5-1.75h29.813C1683.281,1380.842,1683.781,1381.009,1684.156,1381.342z"/>
			<path fill="#FFFFFF" d="M1723.469,1381.342c0.333,0.334,0.5,0.75,0.5,1.25c0,0.459-0.167,0.854-0.5,1.188
				c-0.375,0.375-0.854,0.563-1.438,0.563h-22.125c-0.917,0-1.625,0.292-2.125,0.875c-0.417,0.5-0.625,1.146-0.625,1.938v14.125
				h22.688c0.625,0,1.125,0.167,1.5,0.5c0.333,0.334,0.5,0.75,0.5,1.25c0,0.459-0.167,0.854-0.5,1.188
				c-0.375,0.375-0.875,0.563-1.5,0.563h-22.688v15.813c0,0.75,0.208,1.375,0.625,1.875c0.5,0.584,1.208,0.875,2.125,0.875h22.938
				c0.625,0,1.125,0.167,1.5,0.5c0.333,0.334,0.5,0.75,0.5,1.25c0,0.459-0.167,0.854-0.5,1.188c-0.375,0.375-0.875,0.563-1.5,0.563
				h-23.625c-1.917,0-3.417-0.625-4.5-1.875c-0.959-1.125-1.438-2.5-1.438-4.125v-33.938c0-1.666,0.479-3.063,1.438-4.188
				c1.083-1.25,2.583-1.875,4.5-1.875h22.813C1722.614,1380.842,1723.094,1381.009,1723.469,1381.342z"/>
			<path fill="#FFFFFF" d="M1764.031,1383.842c2.708,2.375,4.438,5.563,5.188,9.563c0.083,0.584-0.042,1.125-0.375,1.625
				c-0.292,0.417-0.709,0.688-1.25,0.813c-0.5,0.125-0.959,0.042-1.375-0.25c-0.5-0.333-0.813-0.875-0.938-1.625
				c-0.709-3.625-2.375-6.354-5-8.188c-2.375-1.666-5.375-2.5-9-2.5c-4.75,0-8.604,1.729-11.563,5.188
				c-3.084,3.709-4.625,8.834-4.625,15.375c0,6.709,1.541,11.875,4.625,15.5c2.875,3.375,6.729,5.063,11.563,5.063
				c3.666,0,6.646-0.854,8.938-2.563c2.583-1.958,4.333-5.063,5.25-9.313c0.125-0.666,0.438-1.146,0.938-1.438
				c0.458-0.25,0.958-0.313,1.5-0.188c0.583,0.125,1.021,0.417,1.313,0.875c0.333,0.5,0.416,1.125,0.25,1.875
				c-1,4.167-2.834,7.459-5.5,9.875c-3.167,2.917-7.396,4.375-12.688,4.375c-6,0-10.813-2.146-14.438-6.438
				c-3.75-4.333-5.625-10.208-5.625-17.625c0-7.25,1.875-13.083,5.625-17.5c3.666-4.375,8.479-6.563,14.438-6.563
				C1756.614,1379.779,1760.864,1381.134,1764.031,1383.842z"/>
			<path fill="#FFFFFF" d="M1779.781,1380.279c0.375-0.333,0.833-0.5,1.375-0.5c0.5,0,0.938,0.167,1.313,0.5
				c0.416,0.375,0.625,0.896,0.625,1.563v18.563h27v-18.563c0-0.666,0.188-1.188,0.563-1.563c0.375-0.333,0.833-0.5,1.375-0.5
				c0.5,0,0.938,0.167,1.313,0.5c0.416,0.375,0.625,0.896,0.625,1.563v44.063c0,0.625-0.209,1.125-0.625,1.5
				c-0.375,0.333-0.813,0.5-1.313,0.5c-0.542,0-1-0.167-1.375-0.5c-0.375-0.375-0.563-0.875-0.563-1.5v-22h-27v22
				c0,0.625-0.209,1.125-0.625,1.5c-0.375,0.333-0.813,0.5-1.313,0.5c-0.542,0-1-0.167-1.375-0.5
				c-0.375-0.375-0.563-0.875-0.563-1.5v-44.063C1779.219,1381.176,1779.406,1380.654,1779.781,1380.279z"/>
		</g>
	</g>
</g>
</svg>
